<?xml version="1.0" encoding="UTF-8" standalone="no"?>
<!DOCTYPE svg PUBLIC "-//W3C//DTD SVG 1.1//EN"
 "http://www.w3.org/Graphics/SVG/1.1/DTD/svg11.dtd">
<!-- Generated by graphviz version 2.43.0 (0)
 -->
<!-- Title: G Pages: 1 -->
<svg width="1294pt" height="418pt"
 viewBox="0.00 0.00 1293.87 417.58" xmlns="http://www.w3.org/2000/svg" xmlns:xlink="http://www.w3.org/1999/xlink">
<g id="graph0" class="graph" transform="scale(1 1) rotate(0) translate(4 413.58)">
<title>G</title>
<polygon fill="white" stroke="transparent" points="-4,4 -4,-413.58 1289.87,-413.58 1289.87,4 -4,4"/>
<!-- http://www.w3.org/ns/prov#Agent -->
<g id="node1" class="node">
<title>http://www.w3.org/ns/prov#Agent</title>
<ellipse fill="#1f77b4" stroke="#1f77b4" cx="913.5" cy="-393.32" rx="67.35" ry="16.03"/>
<text text-anchor="middle" x="913.5" y="-389.62" font-family="Times,serif" font-size="14.00">prov:Agent</text>
</g>
<!-- http://www.w3.org/ns/prov#Entity -->
<g id="node2" class="node">
<title>http://www.w3.org/ns/prov#Entity</title>
<ellipse fill="#1f77b4" stroke="#1f77b4" cx="597.5" cy="-393.32" rx="69.09" ry="16.03"/>
<text text-anchor="middle" x="597.5" y="-389.62" font-family="Times,serif" font-size="14.00">prov:Entity</text>
</g>
<!-- http://www.w3.org/ns/prov#Role -->
<g id="node3" class="node">
<title>http://www.w3.org/ns/prov#Role</title>
<ellipse fill="#1f77b4" stroke="#1f77b4" cx="253.5" cy="-393.32" rx="60.21" ry="16.03"/>
<text text-anchor="middle" x="253.5" y="-389.62" font-family="Times,serif" font-size="14.00">prov:Role</text>
</g>
<!-- http://www.w3.org/ns/prov#Person -->
<g id="node4" class="node">
<title>http://www.w3.org/ns/prov#Person</title>
<ellipse fill="#1f77b4" stroke="#1f77b4" cx="756.5" cy="-393.32" rx="72.25" ry="16.03"/>
<text text-anchor="middle" x="756.5" y="-389.62" font-family="Times,serif" font-size="14.00">prov:Person</text>
</g>
<!-- http://www.w3.org/ns/prov#Activity -->
<g id="node5" class="node">
<title>http://www.w3.org/ns/prov#Activity</title>
<ellipse fill="#1f77b4" stroke="#1f77b4" cx="1209.5" cy="-99.79" rx="76.24" ry="16.03"/>
<text text-anchor="middle" x="1209.5" y="-96.09" font-family="Times,serif" font-size="14.00">prov:Activity</text>
</g>
<!-- http://www.w3.org/ns/prov#Plan -->
<g id="node6" class="node">
<title>http://www.w3.org/ns/prov#Plan</title>
<ellipse fill="#1f77b4" stroke="#1f77b4" cx="450.5" cy="-393.32" rx="60.21" ry="16.03"/>
<text text-anchor="middle" x="450.5" y="-389.62" font-family="Times,serif" font-size="14.00">prov:Plan</text>
</g>
<!-- http://www.w3.org/ns/prov#Association -->
<g id="node7" class="node">
<title>http://www.w3.org/ns/prov#Association</title>
<ellipse fill="#1f77b4" stroke="#1f77b4" cx="756.5" cy="-246.55" rx="94.51" ry="16.03"/>
<text text-anchor="middle" x="756.5" y="-242.85" font-family="Times,serif" font-size="14.00">prov:Association</text>
</g>
<!-- http://example.com/steve -->
<g id="node8" class="node">
<title>http://example.com/steve</title>
<ellipse fill="#e377c2" stroke="#e377c2" cx="604.5" cy="-246.55" rx="38.78" ry="16.03"/>
<text text-anchor="middle" x="604.5" y="-242.85" font-family="Times,serif" font-size="14.00">steve</text>
</g>
<!-- http://example.com/steve&#45;&gt;http://www.w3.org/ns/prov#Agent -->
<g id="edge19" class="edge">
<title>http://example.com/steve&#45;&gt;http://www.w3.org/ns/prov#Agent</title>
<path fill="none" stroke="black" d="M609.38,-262.7C616.06,-280.86 629.88,-310.74 652.5,-326.05 692.07,-352.84 712.03,-332.93 758.5,-344.05 769.13,-346.6 823.75,-363.77 865.17,-376.91"/>
<polygon fill="black" stroke="black" points="864.26,-380.3 874.85,-379.99 866.38,-373.62 864.26,-380.3"/>
<text text-anchor="middle" x="813" y="-347.85" font-family="Times,serif" font-size="14.00">a</text>
</g>
<!-- http://example.com/steve&#45;&gt;http://www.w3.org/ns/prov#Entity -->
<g id="edge11" class="edge">
<title>http://example.com/steve&#45;&gt;http://www.w3.org/ns/prov#Entity</title>
<path fill="none" stroke="black" d="M603.75,-263.05C602.55,-287.86 600.19,-336.78 598.73,-366.81"/>
<polygon fill="black" stroke="black" points="595.23,-366.78 598.24,-376.94 602.22,-367.12 595.23,-366.78"/>
<text text-anchor="middle" x="605" y="-347.85" font-family="Times,serif" font-size="14.00">a</text>
</g>
<!-- http://example.com/steve&#45;&gt;http://www.w3.org/ns/prov#Person -->
<g id="edge21" class="edge">
<title>http://example.com/steve&#45;&gt;http://www.w3.org/ns/prov#Person</title>
<path fill="none" stroke="black" d="M611.24,-262.82C619.26,-279.74 633.92,-307.13 652.5,-326.05 671.44,-345.35 697.01,-361.74 718.06,-373.39"/>
<polygon fill="black" stroke="black" points="716.6,-376.58 727.06,-378.24 719.92,-370.42 716.6,-376.58"/>
<text text-anchor="middle" x="697" y="-347.85" font-family="Times,serif" font-size="14.00">a</text>
</g>
<!-- ub1bL10C31 -->
<g id="node9" class="node">
<title>ub1bL10C31</title>
<ellipse fill="#e377c2" stroke="#e377c2" cx="1104.5" cy="-99.79" rx="11" ry="11"/>
</g>
<!-- ub1bL10C31&#45;&gt;http://www.w3.org/ns/prov#Association -->
<g id="edge2" class="edge">
<title>ub1bL10C31&#45;&gt;http://www.w3.org/ns/prov#Association</title>
<path fill="none" stroke="black" d="M1096.1,-106.96C1091.43,-110.12 1085.38,-113.77 1079.5,-116.05 1040.67,-131.15 1028.13,-124.81 987.5,-134.05 930.63,-146.99 913,-141.67 860.5,-167.05 830.25,-181.68 800.09,-205.76 780.1,-223.4"/>
<polygon fill="black" stroke="black" points="777.54,-221 772.44,-230.28 782.22,-226.2 777.54,-221"/>
<text text-anchor="middle" x="992" y="-137.85" font-family="Times,serif" font-size="14.00">a</text>
</g>
<!-- http://example.com/derek -->
<g id="node11" class="node">
<title>http://example.com/derek</title>
<ellipse fill="#e377c2" stroke="#e377c2" cx="909.5" cy="-246.55" rx="40.11" ry="16.03"/>
<text text-anchor="middle" x="909.5" y="-242.85" font-family="Times,serif" font-size="14.00">derek</text>
</g>
<!-- ub1bL10C31&#45;&gt;http://example.com/derek -->
<g id="edge8" class="edge">
<title>ub1bL10C31&#45;&gt;http://example.com/derek</title>
<path fill="none" stroke="black" d="M1095.53,-107C1090.89,-110.01 1085.05,-113.53 1079.5,-116.05 1055.32,-127.06 1045.25,-120.34 1022.5,-134.05 983.26,-157.7 947.34,-197.64 926.97,-222.75"/>
<polygon fill="black" stroke="black" points="924.17,-220.65 920.68,-230.65 929.64,-225.01 924.17,-220.65"/>
<text text-anchor="middle" x="1061.5" y="-137.85" font-family="Times,serif" font-size="14.00">prov:agent</text>
</g>
<!-- http://example.com/illustrationist -->
<g id="node13" class="node">
<title>http://example.com/illustrationist</title>
<ellipse fill="#e377c2" stroke="#e377c2" cx="1104.5" cy="-246.55" rx="79.81" ry="16.03"/>
<text text-anchor="middle" x="1104.5" y="-242.85" font-family="Times,serif" font-size="14.00">illustrationist</text>
</g>
<!-- ub1bL10C31&#45;&gt;http://example.com/illustrationist -->
<g id="edge9" class="edge">
<title>ub1bL10C31&#45;&gt;http://example.com/illustrationist</title>
<path fill="none" stroke="black" d="M1104.5,-111.2C1104.5,-133.8 1104.5,-187.91 1104.5,-220.14"/>
<polygon fill="black" stroke="black" points="1101,-220.16 1104.5,-230.16 1108,-220.16 1101,-220.16"/>
<text text-anchor="middle" x="1152" y="-137.85" font-family="Times,serif" font-size="14.00">prov:hadRole</text>
</g>
<!-- ub1bL15C31 -->
<g id="node10" class="node">
<title>ub1bL15C31</title>
<ellipse fill="#e377c2" stroke="#e377c2" cx="458.5" cy="-99.79" rx="11" ry="11"/>
</g>
<!-- ub1bL15C31&#45;&gt;http://www.w3.org/ns/prov#Association -->
<g id="edge18" class="edge">
<title>ub1bL15C31&#45;&gt;http://www.w3.org/ns/prov#Association</title>
<path fill="none" stroke="black" d="M469.81,-100.68C499.39,-100.84 580.87,-104.16 639.5,-134.05 681.05,-155.24 717.97,-195.92 738.75,-221.84"/>
<polygon fill="black" stroke="black" points="736.24,-224.31 745.16,-230.02 741.75,-219.99 736.24,-224.31"/>
<text text-anchor="middle" x="667" y="-137.85" font-family="Times,serif" font-size="14.00">a</text>
</g>
<!-- ub1bL15C31&#45;&gt;http://example.com/steve -->
<g id="edge17" class="edge">
<title>ub1bL15C31&#45;&gt;http://example.com/steve</title>
<path fill="none" stroke="black" d="M469.27,-102.63C486.53,-106.07 520.69,-114.92 542.5,-134.05 569.28,-157.55 586.88,-195.53 596.27,-220.53"/>
<polygon fill="black" stroke="black" points="593.01,-221.82 599.68,-230.05 599.6,-219.45 593.01,-221.82"/>
<text text-anchor="middle" x="596.5" y="-137.85" font-family="Times,serif" font-size="14.00">prov:agent</text>
</g>
<!-- http://example.com/style&#45;guide -->
<g id="node12" class="node">
<title>http://example.com/style&#45;guide</title>
<ellipse fill="#e377c2" stroke="#e377c2" cx="456.5" cy="-246.55" rx="67.35" ry="16.03"/>
<text text-anchor="middle" x="456.5" y="-242.85" font-family="Times,serif" font-size="14.00">style&#45;guide</text>
</g>
<!-- ub1bL15C31&#45;&gt;http://example.com/style&#45;guide -->
<g id="edge14" class="edge">
<title>ub1bL15C31&#45;&gt;http://example.com/style&#45;guide</title>
<path fill="none" stroke="black" d="M454.49,-110.19C451.93,-116.75 448.83,-125.77 447.5,-134.05 442.78,-163.35 446.9,-197.4 450.99,-220.09"/>
<polygon fill="black" stroke="black" points="447.56,-220.79 452.9,-229.95 454.44,-219.47 447.56,-220.79"/>
<text text-anchor="middle" x="495" y="-137.85" font-family="Times,serif" font-size="14.00">prov:hadPlan</text>
</g>
<!-- http://example.com/stylist -->
<g id="node14" class="node">
<title>http://example.com/stylist</title>
<ellipse fill="#e377c2" stroke="#e377c2" cx="328.5" cy="-246.55" rx="43.27" ry="16.03"/>
<text text-anchor="middle" x="328.5" y="-242.85" font-family="Times,serif" font-size="14.00">stylist</text>
</g>
<!-- ub1bL15C31&#45;&gt;http://example.com/stylist -->
<g id="edge3" class="edge">
<title>ub1bL15C31&#45;&gt;http://example.com/stylist</title>
<path fill="none" stroke="black" d="M447.37,-100.55C424.81,-100.71 373.62,-104.52 347.5,-134.05 326.76,-157.5 324.48,-194.98 325.72,-219.93"/>
<polygon fill="black" stroke="black" points="322.24,-220.37 326.45,-230.09 329.22,-219.87 322.24,-220.37"/>
<text text-anchor="middle" x="395" y="-137.85" font-family="Times,serif" font-size="14.00">prov:hadRole</text>
</g>
<!-- 8e38085c4cc34b38889d4806fd628a58 -->
<g id="node17" class="node">
<title>8e38085c4cc34b38889d4806fd628a58</title>
<polygon fill="#ff7f0e" stroke="#ff7f0e" points="95,-326.05 0,-326.05 0,-167.05 95,-167.05 95,-326.05"/>
<text text-anchor="middle" x="47.5" y="-294.85" font-family="Times,serif" font-size="14.00">Steve</text>
<text text-anchor="middle" x="47.5" y="-279.85" font-family="Times,serif" font-size="14.00">helped</text>
<text text-anchor="middle" x="47.5" y="-264.85" font-family="Times,serif" font-size="14.00">Derek</text>
<text text-anchor="middle" x="47.5" y="-249.85" font-family="Times,serif" font-size="14.00">conform</text>
<text text-anchor="middle" x="47.5" y="-234.85" font-family="Times,serif" font-size="14.00">with</text>
<text text-anchor="middle" x="47.5" y="-219.85" font-family="Times,serif" font-size="14.00">the</text>
<text text-anchor="middle" x="47.5" y="-204.85" font-family="Times,serif" font-size="14.00">publisher&#39;s</text>
<text text-anchor="middle" x="47.5" y="-189.85" font-family="Times,serif" font-size="14.00">style</text>
<text text-anchor="middle" x="47.5" y="-174.85" font-family="Times,serif" font-size="14.00"> &#160;&#160;guide. &#160;</text>
</g>
<!-- ub1bL15C31&#45;&gt;8e38085c4cc34b38889d4806fd628a58 -->
<g id="edge16" class="edge">
<title>ub1bL15C31&#45;&gt;8e38085c4cc34b38889d4806fd628a58</title>
<path fill="none" stroke="black" d="M447.46,-101.67C394.09,-106.11 162.95,-127.36 104.5,-167.05 104.1,-167.33 103.7,-167.6 103.3,-167.88"/>
<polygon fill="black" stroke="black" points="100.92,-165.31 95.24,-174.25 105.26,-170.8 100.92,-165.31"/>
<text text-anchor="middle" x="251.5" y="-137.85" font-family="Times,serif" font-size="14.00">rdfs:comment</text>
</g>
<!-- http://example.com/derek&#45;&gt;http://www.w3.org/ns/prov#Agent -->
<g id="edge13" class="edge">
<title>http://example.com/derek&#45;&gt;http://www.w3.org/ns/prov#Agent</title>
<path fill="none" stroke="black" d="M909.93,-263.05C910.61,-287.86 911.97,-336.78 912.8,-366.81"/>
<polygon fill="black" stroke="black" points="909.3,-367.04 913.08,-376.94 916.3,-366.84 909.3,-367.04"/>
<text text-anchor="middle" x="918" y="-347.85" font-family="Times,serif" font-size="14.00">a</text>
</g>
<!-- http://example.com/derek&#45;&gt;http://www.w3.org/ns/prov#Entity -->
<g id="edge20" class="edge">
<title>http://example.com/derek&#45;&gt;http://www.w3.org/ns/prov#Entity</title>
<path fill="none" stroke="black" d="M904.46,-262.75C897.58,-280.96 883.41,-310.89 860.5,-326.05 817.73,-354.37 796.15,-331.18 746.5,-344.05 727.72,-348.92 723.89,-352.86 705.5,-359.05 686.99,-365.29 666.54,-371.7 648.46,-377.22"/>
<polygon fill="black" stroke="black" points="647.24,-373.93 638.69,-380.18 649.27,-380.63 647.24,-373.93"/>
<text text-anchor="middle" x="751" y="-347.85" font-family="Times,serif" font-size="14.00">a</text>
</g>
<!-- http://example.com/derek&#45;&gt;http://www.w3.org/ns/prov#Person -->
<g id="edge15" class="edge">
<title>http://example.com/derek&#45;&gt;http://www.w3.org/ns/prov#Person</title>
<path fill="none" stroke="black" d="M902.55,-262.81C894.3,-279.73 879.27,-307.11 860.5,-326.05 841.47,-345.26 815.9,-361.65 794.88,-373.32"/>
<polygon fill="black" stroke="black" points="793.01,-370.35 785.88,-378.18 796.34,-376.51 793.01,-370.35"/>
<text text-anchor="middle" x="843" y="-347.85" font-family="Times,serif" font-size="14.00">a</text>
</g>
<!-- http://example.com/style&#45;guide&#45;&gt;http://www.w3.org/ns/prov#Entity -->
<g id="edge12" class="edge">
<title>http://example.com/style&#45;guide&#45;&gt;http://www.w3.org/ns/prov#Entity</title>
<path fill="none" stroke="black" d="M471.06,-262.5C495.86,-287.97 546.44,-339.9 575.55,-369.79"/>
<polygon fill="black" stroke="black" points="573.32,-372.51 582.81,-377.23 578.34,-367.63 573.32,-372.51"/>
<text text-anchor="middle" x="568" y="-347.85" font-family="Times,serif" font-size="14.00">a</text>
</g>
<!-- http://example.com/style&#45;guide&#45;&gt;http://www.w3.org/ns/prov#Plan -->
<g id="edge10" class="edge">
<title>http://example.com/style&#45;guide&#45;&gt;http://www.w3.org/ns/prov#Plan</title>
<path fill="none" stroke="black" d="M455.86,-263.05C454.83,-287.86 452.8,-336.78 451.56,-366.81"/>
<polygon fill="black" stroke="black" points="448.05,-366.8 451.14,-376.94 455.05,-367.09 448.05,-366.8"/>
<text text-anchor="middle" x="457" y="-347.85" font-family="Times,serif" font-size="14.00">a</text>
</g>
<!-- http://example.com/stylist&#45;&gt;http://www.w3.org/ns/prov#Role -->
<g id="edge4" class="edge">
<title>http://example.com/stylist&#45;&gt;http://www.w3.org/ns/prov#Role</title>
<path fill="none" stroke="black" d="M320.62,-262.77C307.65,-287.79 281.72,-337.84 266.16,-367.88"/>
<polygon fill="black" stroke="black" points="263,-366.38 261.5,-376.87 269.21,-369.6 263,-366.38"/>
<text text-anchor="middle" x="283" y="-347.85" font-family="Times,serif" font-size="14.00">a</text>
</g>
<!-- http://example.com/illustrating -->
<g id="node15" class="node">
<title>http://example.com/illustrating</title>
<ellipse fill="#e377c2" stroke="#e377c2" cx="900.5" cy="-16.26" rx="67.76" ry="16.03"/>
<text text-anchor="middle" x="900.5" y="-12.56" font-family="Times,serif" font-size="14.00">illustrating</text>
</g>
<!-- http://example.com/illustrating&#45;&gt;http://www.w3.org/ns/prov#Activity -->
<g id="edge7" class="edge">
<title>http://example.com/illustrating&#45;&gt;http://www.w3.org/ns/prov#Activity</title>
<path fill="none" stroke="black" d="M968.17,-17.59C1041.82,-19.23 1153.64,-25.88 1187.5,-50.53 1195.1,-56.06 1200.13,-64.85 1203.44,-73.42"/>
<polygon fill="black" stroke="black" points="1200.19,-74.73 1206.59,-83.18 1206.85,-72.59 1200.19,-74.73"/>
<text text-anchor="middle" x="1203" y="-54.33" font-family="Times,serif" font-size="14.00">a</text>
</g>
<!-- http://example.com/illustrating&#45;&gt;http://example.com/steve -->
<g id="edge1" class="edge">
<title>http://example.com/illustrating&#45;&gt;http://example.com/steve</title>
<path fill="none" stroke="black" d="M851.66,-27.69C814.14,-37.49 762.48,-54.99 724.5,-83.53 695.43,-105.37 700.93,-123.06 675.5,-149.05 666.42,-158.33 661.13,-157.36 652.5,-167.05 637.84,-183.51 625.05,-205.02 616.36,-221.36"/>
<polygon fill="black" stroke="black" points="613.22,-219.82 611.74,-230.31 619.44,-223.03 613.22,-219.82"/>
<text text-anchor="middle" x="812" y="-96.09" font-family="Times,serif" font-size="14.00">prov:wasAssociatedWith</text>
</g>
<!-- http://example.com/illustrating&#45;&gt;ub1bL10C31 -->
<g id="edge22" class="edge">
<title>http://example.com/illustrating&#45;&gt;ub1bL10C31</title>
<path fill="none" stroke="black" d="M928.1,-31.36C949.39,-41.83 979.78,-55.9 1007.5,-65.53 1038.66,-76.35 1049.07,-70.79 1079.5,-83.53 1082.14,-84.63 1084.82,-85.98 1087.4,-87.43"/>
<polygon fill="black" stroke="black" points="1085.7,-90.49 1096.05,-92.74 1089.37,-84.53 1085.7,-90.49"/>
<text text-anchor="middle" x="1097.5" y="-54.33" font-family="Times,serif" font-size="14.00">prov:qualifiedAssociation</text>
</g>
<!-- http://example.com/illustrating&#45;&gt;ub1bL15C31 -->
<g id="edge5" class="edge">
<title>http://example.com/illustrating&#45;&gt;ub1bL15C31</title>
<path fill="none" stroke="black" d="M832.26,-16.29C732.29,-15.95 551.78,-19.83 495.5,-50.53 483.29,-57.18 473.86,-69.76 467.57,-80.41"/>
<polygon fill="black" stroke="black" points="464.37,-78.96 462.69,-89.42 470.53,-82.29 464.37,-78.96"/>
<text text-anchor="middle" x="585.5" y="-54.33" font-family="Times,serif" font-size="14.00">prov:qualifiedAssociation</text>
</g>
<!-- http://example.com/illustrating&#45;&gt;http://example.com/derek -->
<g id="edge6" class="edge">
<title>http://example.com/illustrating&#45;&gt;http://example.com/derek</title>
<path fill="none" stroke="black" d="M901.1,-32.6C902.63,-71.18 906.62,-172.6 908.5,-220.2"/>
<polygon fill="black" stroke="black" points="905.01,-220.43 908.9,-230.29 912,-220.16 905.01,-220.43"/>
<text text-anchor="middle" x="992" y="-96.09" font-family="Times,serif" font-size="14.00">prov:wasAssociatedWith</text>
</g>
<!-- http://example.com/illustratonist -->
<g id="node16" class="node">
<title>http://example.com/illustratonist</title>
<ellipse fill="#e377c2" stroke="#e377c2" cx="190.5" cy="-246.55" rx="77.15" ry="16.03"/>
<text text-anchor="middle" x="190.5" y="-242.85" font-family="Times,serif" font-size="14.00">illustratonist</text>
</g>
<!-- http://example.com/illustratonist&#45;&gt;http://www.w3.org/ns/prov#Role -->
<g id="edge23" class="edge">
<title>http://example.com/illustratonist&#45;&gt;http://www.w3.org/ns/prov#Role</title>
<path fill="none" stroke="black" d="M197.12,-262.77C207.97,-287.69 229.6,-337.41 242.69,-367.48"/>
<polygon fill="black" stroke="black" points="239.58,-369.09 246.78,-376.87 245.99,-366.3 239.58,-369.09"/>
<text text-anchor="middle" x="243" y="-347.85" font-family="Times,serif" font-size="14.00">a</text>
</g>
</g>
</svg>
